<svg version="1.1" id="Layer_1" xmlns="http://www.w3.org/2000/svg" xmlns:xlink="http://www.w3.org/1999/xlink" viewBox="0 0 511.999 511.999" xml:space="preserve" fill="#000000"><g id="SVGRepo_bgCarrier" stroke-width="0"></g><g id="SVGRepo_tracerCarrier" stroke-linecap="round" stroke-linejoin="round"></g><g id="SVGRepo_iconCarrier"> <path style="fill:#E6E7E8;" d="M369.353,503.275H142.644c-9.632,0-17.44-7.809-17.44-17.44V26.16c0-9.632,7.809-17.44,17.44-17.44 h226.71c9.632,0,17.44,7.809,17.44,17.44v459.675C386.794,495.467,378.986,503.275,369.353,503.275z"></path> <g> <path style="fill:#D1D3D4;" d="M369.355,8.72H304.39c9.632,0,17.44,7.809,17.44,17.44v459.675c0,9.632-7.809,17.44-17.44,17.44 h64.965c9.632,0,17.44-7.809,17.44-17.44V26.16C386.795,16.529,378.986,8.72,369.355,8.72z"></path> <rect x="125.209" y="142.173" style="fill:#D1D3D4;" width="261.592" height="333.76"></rect> </g> <path style="fill:#588EED;" d="M397.148,460.968H114.849c-3.092,0-5.597-2.507-5.597-5.597V162.751c0-3.092,2.507-5.597,5.597-5.597 h282.299c3.092,0,5.597,2.507,5.597,5.597v292.618C402.746,458.461,400.24,460.968,397.148,460.968z"></path> <path style="fill:#447BCC;" d="M339.962,157.154v303.814h57.188c3.092,0,5.597-2.507,5.597-5.597V162.751 c0-3.092-2.507-5.597-5.597-5.597L339.962,157.154L339.962,157.154z"></path> <circle cx="158.473" cy="41.566" r="8.72"></circle> <circle cx="158.473" cy="72.551" r="8.72"></circle> <circle cx="191.04" cy="41.566" r="8.72"></circle> <path d="M397.148,148.434H133.924V26.16c0-4.809,3.911-8.72,8.72-8.72h226.709c4.809,0,8.72,3.911,8.72,8.72v61.178 c0,4.816,3.903,8.72,8.72,8.72c4.817,0,8.72-3.904,8.72-8.72V26.16c0-14.425-11.736-26.16-26.16-26.16H142.644 c-14.424,0-26.16,11.735-26.16,26.16v122.273h-1.634c-7.895,0-14.317,6.423-14.317,14.317v292.618 c0,7.895,6.423,14.317,14.317,14.317h1.634v16.152c0,14.425,11.736,26.16,26.16,26.16h226.709c14.424,0,26.16-11.735,26.16-26.16 v-16.152h1.635c7.895,0,14.317-6.423,14.317-14.317V162.751C411.467,154.857,405.043,148.434,397.148,148.434z M394.027,452.247 H117.972V165.874h276.055L394.027,452.247L394.027,452.247z M378.074,485.84c0,4.809-3.911,8.72-8.72,8.72H142.644 c-4.809,0-8.72-3.911-8.72-8.72v-16.152h244.149V485.84z"></path> <circle cx="386.789" cy="126.907" r="8.72"></circle> </g></svg>