<svg fill="white" xmlns="http://www.w3.org/2000/svg" viewBox="0 0 64 64" id="shapes"><path d="M20.58 45.75H8a.75.75 0 0 1-.75-.75V20a.75.75 0 0 1 .75-.75h17.3a.75.75 0 1 1 0 1.5H8.75v23.5h11.83a.75.75 0 0 1 0 1.5Z"></path><path d="M40 38.75c-.372 0-.755-.01-1.116-.043a.75.75 0 0 1 .133-1.494c.318.028.655.037.983.037a14.254 14.254 0 1 0-10.963-5.15.75.75 0 0 1-1.154.96A15.749 15.749 0 1 1 40 38.75Z"></path><path d="M48.5 53.75h-33a.75.75 0 0 1-.633-1.152l16.5-26a.78.78 0 0 1 1.266 0l16.5 26a.75.75 0 0 1-.633 1.152zm-31.636-1.5h30.272L32 28.4zm3.516-18.81a.754.754 0 0 1 0-1.06.754.754 0 0 1 1.06 0 .754.754 0 0 1 0 1.06.742.742 0 0 1-.53.22.741.741 0 0 1-.53-.22zm-2.12-2.12a.754.754 0 0 1 0-1.06.754.754 0 0 1 1.06 0 .754.754 0 0 1 0 1.06.742.742 0 0 1-.53.22.726.726 0 0 1-.53-.22zm-2.12-2.12a.737.737 0 0 1 0-1.06.754.754 0 0 1 1.06 0 .754.754 0 0 1 0 1.06.785.785 0 0 1-.53.22.768.768 0 0 1-.53-.22zm-2.12-2.12a.748.748 0 0 1 0-1.07.754.754 0 0 1 1.06 0 .766.766 0 0 1 0 1.07.785.785 0 0 1-.53.22.747.747 0 0 1-.53-.22zm-2.13-2.12a.767.767 0 0 1 0-1.07.754.754 0 0 1 1.06 0 .748.748 0 0 1 0 1.07.74.74 0 0 1-.53.21.778.778 0 0 1-.53-.21z"></path><path d="M8 25.574a.75.75 0 0 1-.75-.75V20a.75.75 0 0 1 .75-.75h4.824a.75.75 0 0 1 .75.75A5.58 5.58 0 0 1 8 25.574Zm.75-4.824v3.254a4.085 4.085 0 0 0 3.254-3.254Z"></path></svg>