<svg fill="white" xmlns="http://www.w3.org/2000/svg" enable-background="new 0 0 512 512" viewBox="0 0 512 512" id="sketch"><path d="M477,512H35c-19.3,0-35-15.7-35-35V147c0-19.3,15.7-35,35-35h361.1v10H35c-13.8,0-25,11.2-25,25v330c0,13.8,11.2,25,25,25h442c13.8,0,25-11.2,25-25V147c0-13.8-11.2-25-25-25h-20.9v-10H477c19.3,0,35,15.7,35,35v330C512,496.3,496.3,512,477,512z"></path><path d="M467 472H85c-2.8 0-5-2.2-5-5V157c0-2.8 2.2-5 5-5h309.7l62.9-138.4c3.8-8.3 12-13.6 21.1-13.6 7.9 0 15.2 4 19.5 10.6 4.3 6.7 4.9 15 1.6 22.2L445.7 152H467c2.8 0 5 2.2 5 5v310C472 469.8 469.8 472 467 472zM90 462h372V162h-24.1c-1.7 0-3.3-.9-4.2-2.3-.9-1.4-1.1-3.2-.3-4.8l57.4-126.3c1.9-4.2 1.6-8.8-.9-12.6-2.5-3.8-6.5-6.1-11.1-6.1-5.2 0-9.9 3-12 7.7l-102 224.4-2.3 36.3 26.3-25.4 35.5-78.1 9.1 4.1-35.9 79c-.3.6-.6 1.1-1.1 1.5l-36.2 35c-1.5 1.4-3.7 1.8-5.6.9-1.9-.9-3-2.8-2.9-4.8l3.1-50.1c0-.6.2-1.2.4-1.8l34.9-76.8H90V462zM45 337c-13.8 0-25-11.2-25-25s11.2-25 25-25 25 11.2 25 25S58.8 337 45 337zM45 297c-8.3 0-15 6.7-15 15s6.7 15 15 15 15-6.7 15-15S53.3 297 45 297zM45 272c-11 0-20-9-20-20v-50c0-11 9-20 20-20s20 9 20 20v50C65 263 56 272 45 272zM45 192c-5.5 0-10 4.5-10 10v50c0 5.5 4.5 10 10 10s10-4.5 10-10v-50C55 196.5 50.5 192 45 192z"></path><rect width="30" height="10" x="30" y="222"></rect><path d="M45,442c-11,0-20-9-20-20v-50c0-11,9-20,20-20s20,9,20,20v50C65,433,56,442,45,442z M45,362c-5.5,0-10,4.5-10,10v50c0,5.5,4.5,10,10,10s10-4.5,10-10v-50C55,366.5,50.5,362,45,362z"></path><rect width="30" height="10" x="30" y="392"></rect><rect width="36.4" height="10" x="358.1" y="243.4" transform="rotate(24.502 376.374 248.475)"></rect><path d="M307.3,429.5c-3.7,0-7.5-0.3-11.3-0.9c-29.9-4.8-54.1-27.7-58.9-55.7c-4.5-26.3,8.9-52.4,21.9-77.6c13.7-26.7,26.7-52,13.9-71.5c-12.1-18.3-39.5-27.6-68.4-23.1c-27.6,4.3-47.6,19.9-53.6,41.5c-6,21.7,1.5,39.3,9.5,58c11,25.6,22.4,52.1-1.1,89.5l-8.5-5.3c20.7-32.9,10.9-55.9,0.4-80.2c-8.3-19.4-17-39.5-10-64.6c7.1-25.6,30.2-43.8,61.7-48.8c32.6-5.1,64.1,5.9,78.3,27.4c16.1,24.4,1.1,53.5-13.3,81.6c-12.2,23.8-24.8,48.4-20.9,71.4c4.1,23.9,24.9,43.4,50.6,47.5c23.5,3.8,44.1-6.3,55-27c13.4-25.5,6.9-39.1,0.1-53.4c-6.6-13.7-13.3-27.9-0.2-49.8l8.6,5.2c-10.4,17.3-5.5,27.4,0.6,40.3c6.9,14.5,15.5,32.5-0.3,62.4C350.1,417.6,330.4,429.5,307.3,429.5z"></path></svg>