<svg height="200px" width="200px" version="1.1" id="Layer_1" xmlns="http://www.w3.org/2000/svg" xmlns:xlink="http://www.w3.org/1999/xlink" viewBox="0 0 512 512" xml:space="preserve" fill="#000000"><g id="SVGRepo_bgCarrier" stroke-width="0"></g><g id="SVGRepo_tracerCarrier" stroke-linecap="round" stroke-linejoin="round"></g><g id="SVGRepo_iconCarrier"> <g transform="translate(1 1)"> <path style="fill:#FD9808;" d="M228.053,70.86h53.895V7.982h-53.895V70.86z"></path> <g> <path style="fill:#FFDD09;" d="M228.053,70.86h35.93V7.982h-35.93V70.86z"></path> <path style="fill:#FFDD09;" d="M344.825,187.632H165.175c0-49.404,40.421-89.825,89.825-89.825S344.825,138.228,344.825,187.632"></path> </g> <path style="fill:#FFFFFF;" d="M138.228,187.632h26.947c0-49.404,40.421-89.825,89.825-89.825h-26.947 C178.649,97.807,138.228,138.228,138.228,187.632"></path> <path style="fill:#FD9808;" d="M281.947,97.807H255c49.404,0,89.825,40.421,89.825,89.825h26.947 C371.772,138.228,331.351,97.807,281.947,97.807"></path> <path style="fill:#FFDD09;" d="M317.877,502.018H192.123c-15.27,0-26.947-11.677-26.947-26.947V187.632h179.649V475.07 C344.825,490.34,333.147,502.018,317.877,502.018"></path> <path style="fill:#FFFFFF;" d="M165.175,475.07V187.632h-26.947V475.07c0,15.27,11.677,26.947,26.947,26.947h26.947 C177.751,502.018,165.175,490.34,165.175,475.07"></path> <path style="fill:#FD9808;" d="M344.825,187.632V475.07c0,15.27-11.677,26.947-26.947,26.947h26.947 c15.27,0,26.947-11.677,26.947-26.947V187.632H344.825z"></path> <path style="fill:#54C9FD;" d="M228.053,385.246h143.719V241.526H228.053V385.246z"></path> <path style="fill:#33A9F8;" d="M344.825,385.246h26.947V241.526h-26.947V385.246z"></path> <path d="M344.825,511H165.175c-19.761,0-35.93-16.168-35.93-35.93V187.632c0-5.389,3.593-8.982,8.982-8.982h233.544 c5.389,0,8.982,3.593,8.982,8.982V475.07C380.754,494.832,364.586,511,344.825,511z M147.211,196.614V475.07 c0,9.881,8.084,17.965,17.965,17.965h179.649c9.881,0,17.965-8.084,17.965-17.965V196.614H147.211z"></path> <path d="M371.772,196.614H138.228c-5.389,0-8.982-3.593-8.982-8.982c0-54.793,44.912-98.807,98.807-98.807h53.895 c54.793,0,98.807,44.014,98.807,98.807C380.754,193.021,377.161,196.614,371.772,196.614z M148.109,178.649h214.681 c-4.491-40.421-38.625-71.86-79.944-71.86h-53.895C186.733,106.789,152.6,138.228,148.109,178.649z"></path> <path d="M255,106.789c-5.389,0-8.982-3.593-8.982-8.982V70.86c0-5.389,3.593-8.982,8.982-8.982c5.389,0,8.982,3.593,8.982,8.982 v26.947C263.982,102.298,260.389,106.789,255,106.789z"></path> <path d="M281.947,79.842h-53.895c-4.491,0-8.982-3.593-8.982-8.982V7.982c0-5.389,3.593-8.982,8.982-8.982h53.895 c5.389,0,8.982,3.593,8.982,8.982V70.86C290.93,76.249,287.337,79.842,281.947,79.842z M237.035,61.877h35.93V16.965h-35.93V61.877 z"></path> <path d="M371.772,394.228H228.053c-5.389,0-8.982-3.593-8.982-8.982V241.526c0-5.389,3.593-8.982,8.982-8.982h143.719 c5.389,0,8.982,3.593,8.982,8.982v143.719C380.754,390.635,377.161,394.228,371.772,394.228z M237.035,376.263h125.754V250.509 H237.035V376.263z"></path> <path d="M192.123,475.07h-53.895c-5.389,0-8.982-3.593-8.982-8.982c0-5.389,3.593-8.982,8.982-8.982h53.895 c5.389,0,8.982,3.593,8.982,8.982C201.105,471.477,197.512,475.07,192.123,475.07z"></path> <path d="M174.158,439.14h-35.93c-5.389,0-8.982-3.593-8.982-8.982s3.593-8.982,8.982-8.982h35.93c5.389,0,8.982,3.593,8.982,8.982 S179.547,439.14,174.158,439.14z"></path> </g> </g></svg>